<?xml version="1.0" encoding="utf-8"?>
<!-- Generator: Adobe Illustrator 19.1.0, SVG Export Plug-In . SVG Version: 6.00 Build 0)  -->
<svg version="1.1" id="Layer_1" xmlns="http://www.w3.org/2000/svg" xmlns:xlink="http://www.w3.org/1999/xlink" x="0px" y="0px"
	 width="460px" height="460px" viewBox="0 0 460 460" style="enable-background:new 0 0 460 460;" xml:space="preserve">
<style type="text/css">
	.st0{clip-path:url(#SVGID_2_);fill-rule:evenodd;clip-rule:evenodd;fill:#C89F38;}
	.st1{clip-path:url(#SVGID_2_);fill:#C89F38;}
	.st2{clip-path:url(#SVGID_2_);fill:#DBDCDD;}
	.st3{clip-path:url(#SVGID_2_);fill:#FFFFFF;stroke:#231F20;stroke-width:0.25;}
	.st4{clip-path:url(#SVGID_2_);fill:#FFFFFF;}
	.st5{clip-path:url(#SVGID_2_);fill:#F9F9F9;}
	.st6{fill:#FFFFFF;}
</style>
<g>
	<defs>
		<rect id="SVGID_1_" x="4.8" y="6.3" width="450.9" height="447.8"/>
	</defs>
	<clipPath id="SVGID_2_">
		<use xlink:href="#SVGID_1_"  style="overflow:visible;"/>
	</clipPath>
	<path class="st0" d="M220,217c-3.9-2.9-7.3-5.8-9.8-9.9c-3.3-5.4-2.9-10.9-1.1-14c0.2-0.3,0.2-0.3,0.1,0.1c-0.1,0.5-5,7.6,7,17.6
		c6.8,5.6,16.8,11,19.5,19.7c0.2,0.8,0.4,1.3,0.4,2.4c-0.2-0.9-0.8-2.4-1.2-3C232.3,225,226.9,222.2,220,217 M229.5,260.6
		c-8.4,1.5-17.4-1.8-18.5-2.2c-1.3-0.5-2.6-1.1-3.9-1.7c3.1,2.8,7,5.2,11.2,6.6c6.2,2,10.8,0.2,13.6-3.3
		C231.2,260.2,230.4,260.4,229.5,260.6 M199.2,253.2c1.3,2.2,3,4.3,4.9,6.1c5.1,4.7,12.1,7.5,19.2,6.3c2.9-0.5,5.4-1.8,7.4-3.7
		c0.6-0.6,1.2-1.2,1.7-1.9c0.3-0.1,0.6-0.2,1-0.4c1.1,0.9,2,2,2.6,3.3c0.2,0.5,0.4,1.1,0.5,1.6c-0.4,1-1,2-1.7,2.9
		c-2.9,3.8-8.4,3.9-12.2,1.3c-0.2-0.1-0.5,0.3-0.2,0.5c1.1,0.8,2.3,1.4,3.5,1.8c0,0,0,0.1,0.1,0.1c4.2,2.1,9.7,0.4,11.8-3.3
		c1.2-1.4,2-3.2,2.1-5.2c0.7-2.3,0.7-4.9,0-7.9c1.2-1.7,1.9-3.5,1.7-5.2c-0.2-2.7-1.9-6-7.3-7.3c-2.1-6.3-7.3-14.6-19-22.1
		c-9.2-5.9-18.5-9.9-26.4-17.2c-4.3-4-7.7-7.2-8.3-14.8c0-0.1-0.3-0.1-0.3,0.2c-0.1,5.5,2,11.6,6.1,16.3c3.7,4.2,7.9,7.2,12.7,10.2
		c9.6,5.9,23.7,12.1,31.1,21.6c1.1,1.4,2.3,3.3,3.3,5.6c-0.2,0-0.3,0-0.5-0.1c-2.4-2.8-5.3-5.2-8.4-7.6c-5.9-4.4-12-8.1-18.2-11.4
		c-4.7-3.4-10.6-7.3-17.9-11.7c-10.7-6.5-22.4-14.5-28.4-22.8c-3.1-4.3-5.1-9.6-4.1-15.1c0.1-0.8-0.3-0.7-0.3-0.3
		c-1.8,9.5,4.3,18.2,10.7,24.9c14.4,15.1,11.5,9.4,19.3,14.4c-2.2-1.2-4.4-2.4-6.6-3.7c-5.4-3.2-15-9.7-20.7-16.2
		c-0.2-0.2-0.6,0-0.4,0.4c5.3,10.1,12.7,17.8,21.6,24.9c8.3,6.5,17,11.5,26,16.2c-7.9-3.4-15.8-6.6-23.7-10.4
		c-5.1-2.5-14.2-7.5-19.6-12.5c-0.2-0.2-0.6,0-0.4,0.3c5.1,7.7,12.1,13.6,20.5,19c5.5,3.6,11.2,6.5,17,9.2c-0.3,0.3-0.5,0.6-0.8,1
		c-2.3-0.8-4.6-1.6-6.9-2.5c-4.1-1.5-11.4-4.9-15.9-8.4c-0.2-0.1-0.4,0-0.3,0.2c4.4,5.6,10,9.7,16.9,13.4c1.5,0.8,3.1,1.6,4.6,2.3
		c0,0.7,0,1.5,0.1,2.2c-1.6-0.3-3.2-0.5-5-0.6c-3.9-0.2-7.7,0.7-10.5,3c-2.4,1.9-2.8,5.5,0.2,7.2c0.1,0.1,0.3,0,0.2-0.1
		c-0.5-0.4-0.9-0.8-1.2-1.3c-0.6-1.1-0.5-2.3,0.2-3.2c1.5-1.9,4.5-2.6,7.1-2.4C192.2,250.5,195.7,251.7,199.2,253.2 M200.4,248.3
		c-0.3-0.6-0.6-1.2-0.8-1.8c8,3.4,16.4,5.8,24.8,8.7c2.7,0.9,5.6,1.9,7.8,3.4c-0.4,0.1-0.8,0.1-1.2,0.1c-4,0.3-8.3-1-10.7-1.9
		C214,254.3,207.8,250.3,200.4,248.3 M239.7,254.2c0-0.1,0-0.2-0.1-0.3c-1-3.6-2.6-6.7-4.7-9.6c-0.1-0.6-0.3-1.3-0.5-1.9
		c1.2,0.3,2.3,0.7,3.3,1.4c2.2,1.4,3.2,3.7,3.4,5.7C241.1,250.2,240.9,252.2,239.7,254.2 M233.6,242.2c0.1,0.2,0.2,0.4,0.2,0.6
		c-0.2-0.2-0.4-0.5-0.6-0.7C233.3,242.2,233.4,242.2,233.6,242.2 M200,239.5c3.5,1.6,7.1,3.2,10.7,4.7c-3.7-1.3-7.5-2.4-11.2-3.7
		C199.6,240.2,199.8,239.9,200,239.5 M228.1,271.2c1.7,0.2,3.4,0,4.9-0.5c-1.5,0.7-3.4,0.9-5.2,0.5
		C227.9,271.2,228,271.2,228.1,271.2 M231.8,248.5c-1.1-1-2.4-1.9-3.6-2.8C229.5,246.5,230.7,247.5,231.8,248.5"/>
	<path class="st1" d="M254.1,225.6c2.8-0.2,5.8,0.6,8.1,2.3c1.7,1.3,2.9,3.1,4.2,4.8c0.6,0.5,1.2,1,1.8,1.5c1.3,1,2.6,2.1,3.9,3.2
		c1,0.9,3.1,2,3.2,3.5c0,0.4,0,0.7-0.2,1c-0.4,0.9-0.6,1.2-0.2,2.2c0.2,0.6,0.4,1.5-0.1,2c-0.8,0.7-1.9,0.6-2.9,0.6
		c-0.2,0-0.5,0-0.7,0c-0.5,0.1-1,0.2-1.5,0.2c-0.1,0-0.2,0-0.4,0c0,0,0,0,0,0c-0.8-0.1-1.4-0.4-1.9-0.9c-0.8-0.8-1.3-1.4-2.5-1.6
		c-0.6-0.1-1.2-0.2-1.7-0.4c-0.6,0-1.2-0.1-1.7-0.3c-0.8-0.1-1.7-0.3-2.5-0.6c-1.5-0.5-2.9-1.1-4.4-1.6c-1-0.4-1.8-1-2.6-1.8
		c-0.6-0.6-1.2-1.3-1.7-2c-0.3-0.4-0.6-0.7-0.8-1c-0.8-1.1-1.3-2.3-1.5-3.7c-0.3-1.2-0.2-2.4,0.1-3.5
		C248.8,226.9,251.6,225.8,254.1,225.6"/>
	<path class="st1" d="M210.4,289c1.5-1.7,3.6-3,5.6-3.9c1.1-0.5,2.2-0.9,3.3-1.4c0.3-0.2,0.7-0.4,1-0.7c1.5-1.2,3-2.5,4.3-3.9
		c0.7-0.9,1.4-1.7,2.1-2.6c0.7-0.8,1.3-1.6,2-2.5c1.5-2.1,2.8-4.2,3.8-6.5c0-0.2,0.1-0.3,0.1-0.5v0c0.6-1.9,1.5-3.6,2.6-5.3
		c1-1.7,1.9-3.3,2.5-5.2c0.6-1.8,0.7-3.7,1-5.6c0.1-0.8,0.3-1.6,0.4-2.4c0-0.3,0.1-0.6,0.1-1c0.4-3.4,1.3-6.6,2.5-9.8
		c1.1-3,2.4-5.7,4.6-8c1-1,2-1.9,3.2-2.7c0.2-0.2,0.4-0.3,0.6-0.4c0.4-0.3,0.9-0.5,1.4-0.6c0.7-0.3,1.5-0.5,2.2-0.5
		c1.3-0.1,2.3,1.5,1.9,2.7c1.1,1.2,1.5,3.4,1.3,5.1c-0.3,1.8-1,3.7-2.2,5c0.3,1-0.1,2.3-0.2,3.3c-0.1,0.4-0.1,0.7,0,1.1
		c0,0.3,0.1,0.5,0.1,0.8c0.1,0.4,0.1,0.9,0.2,1.3c0.3,1.5,0.7,2.7,1,4.5c0.3,1.3,0.7,2.7,1.6,3.9c0.5,0.6,1,1.2,1.5,1.9
		c3.4,3.7,4.6,6.5,4.8,10.3c0,0.1,0,0.1,0,0.2c0.3,1.7,0,3.3-0.5,4.9c0,0,0,0.1,0,0.1c-0.3,1.2-0.6,2.4-1.1,3.6
		c-0.6,2.1-1.3,4.2-2.4,6.2c-0.7,1.3-1.6,2.6-2.6,3.8c-0.2,0.3-0.4,0.6-0.6,0.8c-0.6,0.8-1.2,1.5-1.9,2.2c-0.2,0.2-0.4,0.4-0.6,0.6
		c-0.9,1.1-1.9,2.1-2.9,3c-0.1,0.2-0.3,0.3-0.4,0.5c-1,1.2-2.2,2.1-3.5,3c-1.2,1.3-2.4,2.5-3.7,3.7c-2.7,2.5-5.3,5.1-8.7,6.8
		c-1.8,0.9-3.8,1.6-5.6,2.4c-0.7,0.8-1.3,1.5-2.1,2.2c-1.6,1.4-3.6,2.3-5.7,2.8c-2.1,0.7-4.4,0.7-6.6,0.2c-1.7-0.4-3.3-1.2-4.7-2.2
		c-1-0.7-1.9-1.5-2.7-2.4c-1.7-1.7-2.4-4.1-2.1-6.4c0-1.1,0.2-2.3,0.5-3.4C206.5,294.4,208.2,291.4,210.4,289"/>
	<path class="st1" d="M292.6,268.3c-1.6-0.5-5.2-1.6-6.1-1.9c-0.9-0.3-0.7-3.3-0.6-3.6c0.1-0.3,0.7-0.2,0.8-0.5
		c0.1-0.3-0.6-1.2-1.1-1.3c-0.5-0.1-0.9,0.3-1.4,0c-0.5-0.3-0.1-0.7-0.6-1.4c-0.5-0.7-6.5-3.6-8.5-3.4c-1.9,0.2-2.6,4.3-3.1,6.2
		c-0.6,2.6-1.7,4.2-2.3,6.9c-0.6,2.5-0.9,5.4-2.6,7.1c-1.7,1.7-18.5-6.5-18.5-6.5l2.8-14.9c0,0,12.3,10.7,13.3,8
		c1-2.7,5.8-9.3,7.3-10.4c1.5-1.1,3-0.7,4.3-0.3c1.2,0.4,7.4,3.7,9.3,3.9c1.8,0.3,2.8,0.5,3.2,2.6c0.4,2,1.3,3.3,1.7,3.7
		c0.4,0.4,0.8,0.4,1.4,0.9C292.1,263.7,294.1,268.8,292.6,268.3"/>
	<path class="st1" d="M205.5,303.1c-0.3,2.9,4.3,9.3,6.6,11.3c2.3,2,4.8,5.5,4.5,6.6c-0.3,1.1-2.1,3.1-3.7,4.4
		c-1.6,1.3-2.5,2.3-3,3.1c-0.5,1,0.1,2.7,1.3,5.8c0.8,1.8,1.8,5.6,2.5,8.3c0.1,0.4,0.2,0.7,0.3,1c0.2,0.8,0.4,1.4,0.5,1.8
		c0,0.4-0.1,0.9-0.1,1.2c0.1,0.6,0.5,1,1.1,1.1c0.6,0.1,0.7,0.7,0.5,1c-0.2,0.3-0.4,0.1-0.5,0.4c-0.1,0.3-0.6,3.6,0.4,4
		c1,0.4,4.9,1.9,6.6,2.6c1.7,0.7-0.2-5.1-0.7-5.7c-0.5-0.6-1-0.7-1.4-1.1c-0.3-0.3-0.6-1-1-2.2c0-0.1-0.1-0.3-0.1-0.4v0
		c-0.2-0.6-0.5-1.6-0.8-2.8c0,0,0,0,0,0c-1-4.4-2.2-11.9-2.5-13.5c-0.2-1,8.5-4.7,10.1-5.9c1.6-1.2,2.9-3.5,3.2-5.9
		c0.2-1.5,0.9-2.3,1.2-4c0.3-1.7-0.3-4-0.4-5.7c-0.1-1.7,3.9-5.4,3.9-5.4l-14.1-3.7C219.8,299.3,205.8,300.3,205.5,303.1"/>
	<path class="st1" d="M208.8,295c-0.8,2.6-1.9,9.7-0.2,12c1.7,2.3,3.5,6,3,7c-0.5,1-2.5,2.5-4.2,3.4c-1.7,0.9-2.8,1.6-3.3,2.4
		c-0.6,0.8-0.4,2.5,0.2,5.6c0.4,1.9,0.7,5.5,0.8,8.2c0,0.3,0,0.7,0.1,1c0,0.8,0.1,1.4,0.1,1.8c-0.1,0.4-0.3,0.8-0.3,1.2
		c0,0.6,0.3,1,0.8,1.2c0.5,0.2,0.5,0.8,0.3,1c-0.2,0.2-0.4,0-0.6,0.2c-0.2,0.3-1.1,3.1-0.2,3.6c0.9,0.5,4.5,2.2,6.1,2.6
		c1.9,0.5,0-3.8-0.5-4.4c-0.4-0.6-0.6-0.7-0.9-1.2c-0.2-0.3-0.4-1.1-0.5-2.2c0-0.1,0-0.3,0-0.4v0c-0.1-0.6-0.2-1.6-0.2-2.8
		c0,0,0,0,0,0c-0.2-4.3,0.1-11.5,0.1-13.1c0-1,8.8-2.9,10.5-3.7c1.7-0.8,3.3-2.8,4-4.9c0.4-1.4,1.3-2,1.9-3.5
		c0.6-1.6,0.4-3.8,0.7-5.4c0.2-1.6,4.6-4.3,4.6-4.3l-12.5-6C218.6,294.3,209.6,292.4,208.8,295"/>
	<path class="st1" d="M279.1,294c-0.7-1.4-2.3-4.6-2.8-5.5c-0.4-0.8,1.8-2.7,2.1-2.8c0.3-0.1,0.6,0.3,0.9,0.2
		c0.3-0.1,0.5-1.2,0.2-1.6c-0.3-0.4-0.8-0.4-1-1c-0.2-0.5,0.4-0.6,0.6-1.4c0.1-0.8-1.9-6.9-3.3-8.1c-1.4-1.2-4.7,1.1-6.4,2
		c-2.3,1.3-4.1,1.6-6.3,3c-2.1,1.3-4.3,3-6.7,2.9c-2.3,0-7.8-17-7.8-17l10.9,0.4c0,0,2.1,7.1,4.6,6c2.6-1.1,10.3-2.3,12.1-1.9
		c1.8,0.3,2.5,1.6,3.1,2.7c0.6,1.1,2.4,7.5,3.5,9c1,1.4,1.5,2.3,0.4,3.9c-1.1,1.6-1.4,3.1-1.4,3.6c0,0.5,0.3,0.8,0.3,1.5
		C282,290.5,279.8,295.3,279.1,294"/>
	<path class="st2" d="M252.3,220.8c0.4,1.3,1.6,2.2,2.5,3.1c0.4,0.4,0.6,0.9,0.8,1.4c0,0,0,0,0,0.1c0.1,0.2,0.2,0.4,0.3,0.6
		c0.1,0.2,0.1,0.3,0.1,0.5c0.7,1.3-0.7,3.1-2.3,2.5c-1.2-0.4-1.7-1.2-2-2.3c-0.1-0.5-0.2-1-0.2-1.3c-0.1-1.4,0.1-3,0.4-4.4
		C251.9,220.6,252.2,220.5,252.3,220.8"/>
	<path class="st2" d="M255.7,226.6c0.2-0.7,0.7-1.3,1-1.9c0.6-1,0.9-2.1,1.2-3.2c0.1-0.2,0.4-0.4,0.6-0.1c0.4,1,0.4,2.1,0.2,3.1
		c0,0.4,0,0.9,0,1.3c0.1,0.7,0.1,1.4-0.1,2.1c-0.1,0.3-0.3,0.7-0.6,0.9c0,0.2-0.2,0.2-0.3,0.2c-0.4,0.2-0.9,0.3-1.3,0.1
		C255.4,228.6,255.4,227.6,255.7,226.6"/>
	<path class="st1" d="M256.4,225.2c0,0-2.3-1-5-0.9c-2.7,0.1-9.5,5.2-11.5,8.7c-2,3.5-6.4,6.2-9,7.2c-2.6,1-4.6,1.4-6.5,1.5
		c-1.9,0.1,2.3,0.7,8-0.7c2.4-0.6,4.7-2.5,4.7-2.5s-2.5,2.9-5.4,5.3c-5.7,4.9-9.5,5.8-11.4,6.4c-1.8,0.6,3.1,0.1,9.8-3.7
		c3.9-2.2,5.3-3.8,5.3-3.8s-3.4,4.4-5.9,5.6c-2.5,1.2,4-1.1,5.3-2.2c0.2-0.1-4.6,3.6-6.5,4.9c-1.8,1.2,5.6-2.7,5.6-2.7
		s-5,3.8-6.2,5.4c-3.5,4.7-12.1,4.7-12.1,4.7s6.5,1.2,13.8-4.2c1.5-1.1,2.5-2.1,4.2-2.2c-3.4,3-5.9,9.6-9.9,12.9
		c-3.9,3.2-9.7,5.3-11.9,6.1c-2.2,0.8,14.2-3.4,17.1-7.7c3-4.4,4.7-4.2,4.7-3.8c-2.6,0.5-4.4,5.2-6.7,6.9c-0.8,0.6,1.6-0.5,3-2.2
		c1.1-1.4,2.7-1.9,2.7-1.6c0.1,0.4-2.2,4.2-5,6.6c-1.8,1.5-3.7,2.4-5.3,2.5c-0.9,0,2,0.7,5.5-1.6c2.2-1.5,4.4-4.5,4.4-4.5
		s-1.6,2.1-3.3,4.3c-2.2,2.8-2.2,7.3-1.9,5.6c0.2-1.3,1.3-3.4,3-4.6c1.8-1.3,3.3-2.3,3.3-2.3l14.8-26.4L256.4,225.2z"/>
	<path class="st1" d="M210.4,293.9c0,0-6.9,3.2-12.3,2c-5.4-1.1-7.6-9.3-7.5-10.9c0.1-1.7-0.9,3.3-0.4,5.1c0.4,1.8,3.1,4.8,3.1,4.8
		s-3.4-1-6.4-0.7c-3.1,0.4-4.9,2-6.8,1.6c-1.9-0.4-5.3-2.5-6.4-3.4c-1.1-1,2.3,3.4,4.8,4.8c2.5,1.4,2.7,0.6,2.7,0.6s-5,3.4-8.5,2.6
		c-3.6-0.7-5.9-2-6.8-2.8c-1-0.7,3.2,4.3,6.8,5.4c3.6,1.1,7-1.6,7-1.6s-0.2,0.5-0.4,0.9c0,0.1-1.9,4.2-5.1,5.6
		c-3.6,1.5-6.1,1-8.1,0.7c-0.2,0,3.8,3.2,7.7,1.3c3.8-1.9,6-6.4,5.9-6.3c-0.8,1.5-2.6,4.8-3.8,5.9c-2.9,2.8-11.3,7.8-11.7,8.6
		c-0.4,0.8,11.9-7,11.9-7l-8.5,8.3l7.8-4.9c0,0-0.7,3.6-3.2,5.7c-2.5,2.2-8,4.2-10.5,4.6c-2.5,0.4,8.6,0.3,11.4-1.9
		c2.8-2.2,7.4-8.1,7.4-8.1l-7.5,11.3l7.7-8.1c0,0,0,2.8-2.2,6.3c-2.3,3.5-7.7,7.1-7.7,7.1s10.2-3.7,12.9-8.6
		c2.7-4.9,3.1-15.7,4.6-17.3c1.5-1.6,2.2-1.7,6.9-0.9c4.7,0.8,8.5-2.7,10.3-4.8c1.8-2.1,4.8,1.2,4.8,1.2L210.4,293.9z"/>
	<path class="st0" d="M280.2,216.7c1.5-2.9,3.1-5.6,5.6-7.7c3.3-2.8,7.1-3.2,9.3-2.3c0.2,0.1,0.2,0.1,0,0.1c-0.3,0-5.8-2.5-11.1,6.7
		c-3,5.2-5.6,12.5-11.1,15.3c-0.5,0.3-0.8,0.4-1.6,0.5c0.6-0.2,1.5-0.8,1.9-1.1C276.2,225.8,277.5,221.9,280.2,216.7 M251.8,228
		c-2-5.4-0.8-11.8-0.6-12.6c0.2-0.9,0.4-1.9,0.7-2.8c-1.5,2.4-2.7,5.3-3.2,8.3c-0.7,4.3,1.1,7.3,3.8,8.7
		C252.2,229.1,252,228.6,251.8,228 M253.3,206.9c-1.4,1.1-2.6,2.5-3.5,4c-2.6,3.9-3.7,8.9-2,13.6c0.7,1.9,1.8,3.4,3.4,4.5
		c0.5,0.4,1,0.7,1.5,0.9c0.1,0.2,0.2,0.4,0.4,0.6c-0.5,0.9-1.1,1.6-1.9,2.1c-0.3,0.2-0.7,0.4-1.1,0.5c-0.7-0.2-1.4-0.4-2.1-0.8
		c-2.9-1.5-3.6-5.2-2.3-8c0.1-0.1-0.3-0.3-0.4-0.1c-0.4,0.8-0.7,1.7-0.8,2.6c0,0-0.1,0-0.1,0.1c-1,3,0.8,6.5,3.6,7.5
		c1.1,0.7,2.4,1,3.8,0.8c1.6,0.2,3.4-0.1,5.3-0.9c1.3,0.6,2.6,0.8,3.8,0.6c1.8-0.5,3.9-2,4.1-5.7c4-2.1,9-6.6,12.8-15.3
		c2.9-6.8,4.6-13.5,8.6-19.6c2.2-3.3,4-6,9.1-7.3c0.1,0,0-0.2-0.2-0.2c-3.7,0.5-7.6,2.7-10.3,5.9c-2.4,2.9-4,6.1-5.5,9.6
		c-2.9,7.1-5.5,17.2-11.1,23.3c-0.8,0.9-2,1.9-3.5,2.8c0-0.1,0-0.2,0-0.3c1.6-1.9,2.9-4.1,4.2-6.5c2.3-4.5,4.1-8.9,5.6-13.5
		c1.8-3.6,3.7-7.9,5.9-13.3c3.2-7.9,7.3-16.6,12.2-21.6c2.6-2.6,5.9-4.5,9.8-4.5c0.6,0,0.4-0.3,0.2-0.3c-6.6-0.1-11.8,4.9-15.7,10
		c-2.6,3.5-5.1,8.8-7.5,14.6c0.6-1.6,1.1-3.2,1.7-4.8c1.5-4,4.9-11.2,8.6-15.7c0.1-0.2-0.1-0.4-0.3-0.2
		c-6.2,4.7-10.6,10.5-14.4,17.3c11.3-20.5,1-8.2-8,19.2c1.4-5.6,2.6-11.3,4.3-17c1.1-3.7,3.5-10.3,6.2-14.6c0.1-0.2-0.1-0.4-0.2-0.2
		c-4.6,4.3-7.8,9.6-10.6,15.9c-1.8,4.1-3.1,8.2-4.3,12.4c-0.2-0.2-0.5-0.3-0.8-0.4c0.3-1.6,0.5-3.3,0.9-4.9c0.6-2.9,2-8.2,3.9-11.6
		c0.1-0.1-0.1-0.3-0.2-0.2c-3.3,3.6-5.4,7.8-7.1,12.8c-0.4,1.1-0.7,2.2-1,3.4c-0.5,0.1-1,0.2-1.5,0.3c0-1.1,0-2.2-0.2-3.4
		c-0.3-2.7-1.3-5-3.3-6.7c-1.6-1.4-4-1.2-4.8,0.9c0,0.1,0.1,0.2,0.1,0.1c0.2-0.4,0.4-0.7,0.7-1c0.7-0.5,1.5-0.6,2.2-0.2
		c1.5,0.8,2.3,2.7,2.4,4.5C254.3,201.9,253.9,204.4,253.3,206.9 M256.8,207.2c0.4-0.3,0.8-0.5,1.1-0.7c-1.4,5.7-2.1,11.6-3,17.5
		c-0.3,1.9-0.7,3.9-1.4,5.6c-0.1-0.2-0.1-0.5-0.2-0.8c-0.6-2.7-0.3-5.7,0.1-7.4C254.3,216.9,256.2,212.3,256.8,207.2 M257.3,234.1
		c0.1,0,0.1,0,0.2-0.1c2.3-1.1,4.2-2.5,6-4.3c0.4-0.2,0.8-0.4,1.2-0.6c-0.1,0.8-0.2,1.6-0.6,2.4c-0.7,1.6-2.1,2.6-3.5,2.9
		C260.1,234.6,258.8,234.7,257.3,234.1 M264.7,228.6c-0.1,0.1-0.3,0.1-0.4,0.2c0.1-0.1,0.3-0.3,0.4-0.5
		C264.7,228.5,264.7,228.5,264.7,228.6 M262.7,205.9c-0.7,2.5-1.3,5.1-1.9,7.7c0.4-2.6,0.8-5.3,1.2-7.9
		C262.2,205.7,262.4,205.8,262.7,205.9 M244.4,228.3c0.1,1.1,0.4,2.3,0.9,3.2c-0.7-0.9-1-2.2-0.9-3.4
		C244.4,228.2,244.4,228.2,244.4,228.3 M260.2,228.2c0.5-0.9,1-1.8,1.5-2.8C261.3,226.4,260.8,227.3,260.2,228.2"/>
	<path class="st3" d="M170.5,159.7c4.9-1.4,8.8-5.1,8.8-8.4c0-1.6-1.1-2.6-2.9-2.6c-3.1,0-7.4,2.7-10.5,6.6
		c-3.6,4.5-5.5,9.6-5.5,14.9c0,6.1,3.1,10,8,10c3.2,0,5.9-1.3,9.8-4.6l0.4-0.3l0.3,0.5c-3.9,3.9-7.9,5.8-11.9,5.8
		c-5.6,0-9.3-4.1-9.3-10.4c0-4.5,2.1-9.7,5.8-14.6c4-5.2,9.2-8.7,13.1-8.7c2.3,0,3.9,1.5,3.9,3.7c0,3.9-4.3,8.6-9.1,9.9L170.5,159.7
		z"/>
	<path class="st3" d="M187.2,147.5l2.6-1.3l-6.8,30c0-0.2,0.1-0.2,0.1-0.2l0.6-1.3c0.9-2.1,2.2-4.1,3.7-5.7c1.4-1.6,2.6-2.3,3.9-2.3
		c1.3,0,2.1,0.9,2.1,2.2c0,0.4-0.1,1-0.3,1.6l-0.3,1l-0.8,3l-0.3,1c-0.3,1.1-0.4,1.7-0.4,2.3c0,1,0.4,1.8,1,1.8
		c0.6,0,1.3-0.6,2.5-1.9l0.4,0.4l-0.2,0.3c-1.9,2.3-2.6,2.8-3.3,2.8c-1,0-1.8-1.2-1.8-2.7c0-0.5,0.1-1.2,0.3-2.4l1-5.2
		c0.1-0.8,0.2-1.4,0.2-1.8c0-0.6-0.4-1.1-1-1.1c-2.6,0-6.7,6.6-7.9,12.5l-1.7,0.6L187.2,147.5z"/>
	<path class="st3" d="M208.1,175.4c-0.2,0.8-0.4,1.9-0.4,2.3c0,1.1,0.5,1.8,1.1,1.8c0.5,0,1.2-0.5,2.4-1.8l0.4,0.4l-0.3,0.3
		c-1.8,2.1-2.5,2.7-3.2,2.7c-1,0-1.9-1.3-1.9-2.8c0-0.6,0.1-1.3,0.6-3.6l0.2-0.9c-0.6,1.5-1.3,2.6-2.4,4.1c-1.8,2.2-3.3,3.2-4.9,3.2
		c-1.9,0-3.1-1.4-3.1-3.7c0-4.8,4.7-10.6,8.5-10.6c1.3,0,2.3,0.5,2.9,1.4l0.3-1l2.3-1L208.1,175.4z M205,167.6
		c-1.5,0-3.2,1.4-4.5,3.7c-1.1,1.9-1.9,4.4-1.9,5.9c0,1.7,0.7,2.7,1.9,2.7c1.5,0,3.2-1.5,4.8-4c1-1.6,1.4-2.7,2.1-5.4l0.2-0.9
		C207.2,168.3,206.2,167.6,205,167.6"/>
	<path class="st3" d="M221.3,181.2l2-10c0.1-0.2,0.1-0.5,0.2-0.9c0.2-0.6,0.2-0.9,0.2-1.2c0-0.7-0.4-1.1-0.9-1.1
		c-1.1,0-2.7,1.6-4.4,4.3c-1.7,2.7-2.5,4.7-3.6,8.3l-1.5,0.6l2.5-13.6l2.4-1l-2.1,8.9c2.2-5.1,5.4-8.7,7.6-8.7
		c1.2,0,1.9,0.8,1.9,2.1c0,0.6-0.1,1.2-0.4,2.5l-0.8,3.7c3.1-6,5.2-8.4,7.4-8.4c1.3,0,2,0.8,2,2.1c0,0.5-0.2,1.4-0.5,2.8l-0.8,3
		l-0.2,1c-0.3,1.1-0.4,1.7-0.4,2.3c0,1,0.4,1.8,1,1.8c0.6,0,1.3-0.6,2.4-1.9l0.4,0.4l-0.3,0.3c-1.9,2.3-2.5,2.8-3.3,2.8
		c-1,0-1.9-1.2-1.9-2.7c0-0.5,0.1-1.1,0.3-2.4l0.9-5.1l0.2-0.9c0.1-0.5,0.1-0.9,0.1-1.2c0-0.6-0.4-1-1-1c-1.2,0-2.5,1.3-4.3,4.3
		c-1.7,2.8-2.6,4.9-3.5,8.3L221.3,181.2z"/>
	<path class="st3" d="M239.9,167.5l2.4-1l-1.6,7c2.4-4.8,4.5-6.9,7-6.9c2,0,3.2,1.6,3.2,4.1c0,2.5-1.1,5.4-3,7.6
		c-1.7,2-3.6,3.1-5.6,3.1c-1.3,0-2.3-0.4-3.1-1l-2.5,10.3h-1.4L239.9,167.5z M242.4,180.8c1.8,0,3.4-1.5,4.8-4.4
		c1.1-2.4,1.6-4.4,1.6-5.9c0-1.7-0.7-2.8-1.9-2.8c-1,0-2.1,0.8-3.1,2c-1,1.2-1.9,2.7-2.6,4.3c-0.5,1.1-0.8,1.8-1.5,4.2l-0.2,0.7
		C240.1,180.1,241.2,180.8,242.4,180.8"/>
	<path class="st3" d="M264.5,175.4c-0.2,0.8-0.4,1.9-0.4,2.3c0,1.1,0.5,1.8,1.1,1.8c0.5,0,1.2-0.5,2.4-1.8l0.4,0.4l-0.3,0.3
		c-1.8,2.1-2.5,2.7-3.2,2.7c-1,0-1.9-1.3-1.9-2.8c0-0.6,0.1-1.3,0.6-3.6l0.2-0.9c-0.6,1.5-1.3,2.6-2.4,4.1c-1.8,2.2-3.3,3.2-4.9,3.2
		c-1.9,0-3.1-1.4-3.1-3.7c0-4.8,4.7-10.6,8.5-10.6c1.3,0,2.3,0.5,2.9,1.4l0.3-1l2.3-1L264.5,175.4z M261.4,167.6
		c-1.5,0-3.2,1.4-4.5,3.7c-1.1,1.9-1.9,4.4-1.9,5.9c0,1.7,0.7,2.7,1.9,2.7c1.5,0,3.2-1.5,4.8-4c1-1.6,1.4-2.7,2.1-5.4l0.2-0.9
		C263.6,168.3,262.6,167.6,261.4,167.6"/>
	<path class="st3" d="M279.4,181.4c-0.8,3.3-1.2,4.3-2,5.6c-1.5,2.3-3.9,3.7-6.5,3.7c-1.2,0-2.1-0.3-3-1l1.2-1.6
		c1.2,1.1,2.1,1.5,3.2,1.5c1.3,0,2.8-0.9,3.5-2.2c0.5-0.9,0.8-1.9,1.4-4.1l1.9-8.1c-2.1,4-4.5,6.1-6.7,6.1c-1.8,0-3-1.5-3-3.7
		c0-4.8,4.6-10.7,8.5-10.7c1.1,0,2.1,0.5,2.9,1.3l0.2-0.9l2.3-1L279.4,181.4z M277.9,167.6c-1.1,0-2.2,0.6-3.3,1.9
		c-1.7,2-3.1,5.5-3.1,7.9c0,1.6,0.8,2.7,2,2.7c1.3,0,3-1.5,4.6-4.2c1-1.5,1.6-3.1,2.1-5.3l0.3-1.1
		C279.8,168.2,278.9,167.6,277.9,167.6"/>
	<path class="st3" d="M287.6,167.5l2.4-1l-2.1,9c2.7-5.6,5.5-8.8,8-8.8c1.3,0,2.1,0.9,2.1,2.2c0,0.4-0.1,1-0.3,1.6l-0.3,1l-0.7,3
		l-0.3,1c-0.3,1.1-0.4,1.7-0.4,2.3c0,1,0.4,1.8,1,1.8s1.3-0.6,2.5-1.9l0.4,0.4l-0.2,0.3c-2,2.3-2.6,2.8-3.3,2.8
		c-1,0-1.8-1.2-1.8-2.7c0-0.5,0.1-1.2,0.3-2.4l1-5.2c0.1-0.8,0.2-1.4,0.2-1.8c0-0.6-0.4-1.1-1-1.1c-1.2,0-2.5,1.2-4.2,3.7
		c-1.7,2.4-2.6,4.4-3.8,8.2l-0.3,0.7l-1.6,0.6L287.6,167.5z"/>
	<path class="st3" d="M311.7,177.4c-2.1,2.7-3.9,3.9-6.1,3.9c-2.7,0-4.4-2-4.4-4.9c0-4.5,4.1-9.7,7.6-9.7c1.4,0,2.3,0.9,2.3,2.1
		c0,2.6-3,5.2-7.8,7v0.5c0,2.3,1.4,3.8,3.3,3.8c1.5,0,2.9-0.9,4.6-3L311.7,177.4z M307.5,172.6c1.3-1.4,2.2-3,2.2-4.1
		c0-0.8-0.4-1.2-1.1-1.2c-2.2,0-4.8,4-5.2,7.9C305.3,174.4,306.5,173.6,307.5,172.6"/>
	<path class="st4" d="M230.2,9.5c46.8,96.2,125.9,175.3,221.5,221.6c-96.2,45.6-174.7,123.1-222.2,219.1
		C182.5,355,105,280,9.9,234.2C105.9,187.3,183.8,106.6,230.2,9.5 M230.2,7.9L230.2,7.9c-0.6,0-1.2,0.4-1.4,0.9
		C181.9,107,103.9,186.5,9.2,232.8c-0.5,0.3-0.9,0.8-0.9,1.4c0,0.6,0.4,1.1,0.9,1.4C109.8,285,181.4,356.5,228.1,450.9
		c0.3,0.5,0.8,0.9,1.4,0.9c0.6,0,1.2-0.3,1.4-0.9c47.3-95.5,126-173.1,221.5-218.4c0.6-0.3,0.9-0.8,0.9-1.4c0-0.6-0.3-1.2-0.9-1.4
		C356.9,183.4,278.5,105,231.7,8.8C231.4,8.3,230.9,7.9,230.2,7.9"/>
	<path class="st5" d="M230.3,35.2c42.6,85.4,112.8,155,198.1,196.5c-85.3,40.9-155.8,110-198.8,194.9
		C187.2,342.6,117.8,274.1,33.8,233C118.8,190.9,188.4,120.8,230.3,35.2 M230.3,31.5C188.2,119.4,117.4,190.7,30.2,233
		c86.3,41.4,156.7,111,199.5,197c43.2-86.8,114.5-156.9,201.8-198.2l-1.2-1.2C343.5,188.9,272.8,118.5,230.3,31.5"/>
	<path class="st4" d="M134.5,251.7c-5.4-4.7-6.8-10.8-6.8-16.1c0-3.7,1.2-10.2,6.4-15c4-3.6,9.2-5.8,17.4-5.8c3.4,0,5.4,0.2,8,0.5
		c2.1,0.3,3.9,0.8,5.5,0.9c0.6,0.1,0.8,0.3,0.8,0.7c0,0.4-0.2,1.1-0.3,3c-0.1,1.8-0.1,4.8-0.2,5.9c-0.1,0.8-0.2,1.3-0.7,1.3
		c-0.4,0-0.6-0.4-0.6-1.2c-0.1-1.7-0.8-3.6-2.1-5c-1.8-1.9-6.1-3.4-11.2-3.4c-4.8,0-7.9,1.2-10.3,3.4c-4,3.7-5.1,8.9-5.1,14.2
		c0,13,10,19.5,17.3,19.5c4.9,0,7.9-0.5,10.1-3.1c0.9-1,1.7-2.6,1.9-3.6c0.2-0.9,0.3-1.1,0.7-1.1c0.4,0,0.5,0.4,0.5,0.8
		c0,0.7-0.7,5.4-1.2,7.3c-0.3,0.9-0.5,1.2-1.4,1.6c-2.2,0.9-6.4,1.3-9.9,1.3C145.9,257.7,139.6,256,134.5,251.7"/>
	<path class="st4" d="M177.7,231.4c0-8.3,0-9.8-0.1-11.6c-0.1-1.9-0.6-2.7-2.4-3.1c-0.4-0.1-1.4-0.2-2.1-0.2c-0.6,0-0.9-0.1-0.9-0.5
		c0-0.4,0.4-0.5,1.2-0.5c1.5,0,3.1,0.1,4.5,0.1c1.4,0.1,2.7,0.1,3.5,0.1c1.8,0,12.7,0,13.8-0.1c1-0.1,1.9-0.2,2.4-0.3
		c0.3-0.1,0.6-0.2,0.9-0.2c0.3,0,0.3,0.2,0.3,0.5c0,0.4-0.3,1-0.4,3.6c-0.1,0.5-0.2,3-0.3,3.6c-0.1,0.3-0.2,0.6-0.5,0.6
		c-0.4,0-0.5-0.3-0.5-0.8c0-0.4-0.1-1.3-0.3-2c-0.4-1-0.9-1.6-3.7-2c-0.9-0.1-6.7-0.2-7.8-0.2c-0.3,0-0.4,0.2-0.4,0.5v13.8
		c0,0.4,0.1,0.6,0.4,0.6c1.2,0,7.5,0,8.8-0.1c1.3-0.1,2.1-0.3,2.6-0.8c0.4-0.4,0.6-0.7,0.9-0.7c0.2,0,0.4,0.1,0.4,0.4
		c0,0.3-0.2,1.2-0.4,4c-0.1,1.1-0.2,3.3-0.2,3.7c0,0.4,0,1-0.5,1c-0.4,0-0.5-0.2-0.5-0.5c-0.1-0.5-0.1-1.3-0.2-2
		c-0.3-1.1-1-1.9-3.1-2.1c-1-0.1-6.5-0.2-7.8-0.2c-0.3,0-0.3,0.2-0.3,0.5v4.3c0,1.9-0.1,6.9,0,8.5c0.1,3.8,1,4.6,6.6,4.6
		c1.4,0,3.7,0,5.2-0.7c1.4-0.7,2.1-1.8,2.5-4c0.1-0.6,0.2-0.8,0.6-0.8c0.4,0,0.4,0.4,0.4,1c0,1.3-0.4,5-0.7,6.1
		c-0.4,1.4-0.9,1.4-3,1.4c-4.1,0-7.2-0.1-9.5-0.2c-2.4-0.1-4.1-0.2-5.7-0.2c-0.6,0-1.8,0-3.1,0.1c-1.3,0-2.7,0.1-3.8,0.1
		c-0.7,0-1.1-0.2-1.1-0.5c0-0.3,0.2-0.4,0.9-0.4c0.8,0,1.5-0.1,2-0.2c1.1-0.2,1.4-1.4,1.6-3c0.3-2.3,0.3-6.6,0.3-11.6V231.4z"/>
	<path class="st4" d="M219.4,241.1c0,7,0,10.8,1.2,11.7c0.9,0.8,2.4,1.2,6.7,1.2c2.9,0,5.1-0.1,6.4-1.5c0.7-0.7,1.3-2.2,1.4-3.3
		c0.1-0.5,0.2-0.8,0.6-0.8c0.4,0,0.4,0.3,0.4,0.9c0,0.6-0.4,4.7-0.8,6.3c-0.3,1.2-0.6,1.5-3.5,1.5c-4,0-6.8-0.1-9.3-0.2
		c-2.5-0.1-4.5-0.2-6.7-0.2c-0.6,0-1.8,0-3.1,0.1c-1.3,0-2.7,0.1-3.8,0.1c-0.7,0-1.1-0.2-1.1-0.5c0-0.3,0.2-0.4,0.9-0.4
		c0.8,0,1.5-0.1,2-0.2c1.1-0.2,1.4-1.4,1.6-3c0.3-2.3,0.3-6.6,0.3-11.6v-9.6c0-8.3,0-9.8-0.1-11.6c-0.1-1.9-0.5-2.7-2.4-3.1
		c-0.4-0.1-1.1-0.2-1.8-0.2c-0.6,0-0.9-0.1-0.9-0.5c0-0.4,0.4-0.5,1.2-0.5c2.6,0,6.1,0.2,7.5,0.2c1.3,0,5.3-0.2,7.5-0.2
		c0.8,0,1.2,0.1,1.2,0.5c0,0.4-0.3,0.5-1,0.5c-0.6,0-1.5,0.1-2.1,0.2c-1.5,0.3-1.9,1.2-2,3.1c-0.1,1.7-0.1,3.3-0.1,11.6V241.1z"/>
	<path class="st4" d="M245.8,231.4c0-8.3,0-9.8-0.1-11.6c-0.1-1.9-0.5-2.7-2.4-3.1c-0.4-0.1-1.4-0.2-2.1-0.2c-0.6,0-0.9-0.1-0.9-0.5
		c0-0.4,0.4-0.5,1.2-0.5c1.5,0,3.1,0.1,4.5,0.1c1.4,0.1,2.7,0.1,3.5,0.1c1.8,0,12.7,0,13.8-0.1c1-0.1,1.9-0.2,2.4-0.3
		c0.3-0.1,0.6-0.2,0.9-0.2c0.3,0,0.3,0.2,0.3,0.5c0,0.4-0.3,1-0.4,3.6c-0.1,0.5-0.2,3-0.3,3.6c-0.1,0.3-0.2,0.6-0.6,0.6
		c-0.4,0-0.5-0.3-0.5-0.8c0-0.4-0.1-1.3-0.3-2c-0.4-1-0.9-1.6-3.7-2c-0.9-0.1-6.7-0.2-7.8-0.2c-0.3,0-0.4,0.2-0.4,0.5v13.8
		c0,0.4,0.1,0.6,0.4,0.6c1.2,0,7.5,0,8.8-0.1c1.3-0.1,2.1-0.3,2.6-0.8c0.4-0.4,0.6-0.7,0.9-0.7c0.2,0,0.4,0.1,0.4,0.4
		c0,0.3-0.2,1.2-0.4,4c-0.1,1.1-0.2,3.3-0.2,3.7c0,0.4,0,1-0.5,1c-0.4,0-0.5-0.2-0.5-0.5c-0.1-0.5-0.1-1.3-0.2-2
		c-0.3-1.1-1-1.9-3.1-2.1c-1-0.1-6.5-0.2-7.8-0.2c-0.3,0-0.3,0.2-0.3,0.5v4.3c0,1.9-0.1,6.9,0,8.5c0.1,3.8,1,4.6,6.6,4.6
		c1.4,0,3.7,0,5.2-0.7c1.4-0.7,2.1-1.8,2.5-4c0.1-0.6,0.2-0.8,0.6-0.8c0.4,0,0.4,0.4,0.4,1c0,1.3-0.4,5-0.7,6.1
		c-0.4,1.4-0.9,1.4-3,1.4c-4.1,0-7.2-0.1-9.5-0.2c-2.4-0.1-4.1-0.2-5.7-0.2c-0.6,0-1.8,0-3.1,0.1c-1.3,0-2.7,0.1-3.8,0.1
		c-0.7,0-1.1-0.2-1.1-0.5c0-0.3,0.2-0.4,0.9-0.4c0.8,0,1.5-0.1,2-0.2c1.1-0.2,1.4-1.4,1.6-3c0.3-2.3,0.3-6.6,0.3-11.6V231.4z"/>
	<path class="st4" d="M277.6,256.3c-0.9-0.4-1-0.7-1-1.9c0-3,0.2-6.3,0.3-7.2c0.1-0.8,0.2-1.4,0.7-1.4c0.5,0,0.5,0.5,0.5,0.9
		c0,0.7,0.2,1.9,0.5,2.8c1.2,4,4.5,5.5,7.9,5.5c5,0,7.4-3.3,7.4-6.2c0-2.7-0.8-5.2-5.4-8.7l-2.5-2c-6.1-4.7-8.1-8.5-8.1-13
		c0-6,5.1-10.3,12.7-10.3c3.6,0,5.9,0.5,7.3,0.9c0.5,0.1,0.8,0.3,0.8,0.7c0,0.7-0.2,2.3-0.2,6.6c0,1.2-0.2,1.6-0.6,1.6
		c-0.4,0-0.5-0.3-0.5-1c0-0.5-0.3-2.2-1.4-3.6c-0.8-1-2.4-2.7-6-2.7c-4.1,0-6.5,2.3-6.5,5.6c0,2.5,1.3,4.4,5.8,7.9l1.5,1.1
		c6.7,5,9,8.7,9,13.9c0,3.2-1.2,6.9-5.2,9.5c-2.8,1.7-5.8,2.2-8.8,2.2C282.4,257.7,279.9,257.3,277.6,256.3"/>
	<path class="st4" d="M319.9,218.7l-8.2,0.2c-3.2,0.1-4.5,0.4-5.3,1.6c-0.6,0.8-0.8,1.5-0.9,1.9c-0.1,0.4-0.3,0.7-0.6,0.7
		c-0.4,0-0.5-0.3-0.5-0.9c0-0.9,1-5.8,1.2-6.3c0.2-0.7,0.3-1,0.7-1c0.4,0,1,0.5,2.4,0.7c1.6,0.2,3.7,0.3,5.5,0.3h21.8
		c1.8,0,3-0.2,3.8-0.3c0.8-0.2,1.3-0.3,1.5-0.3c0.4,0,0.4,0.3,0.4,1.1c0,1.1-0.2,4.9-0.2,6.3c-0.1,0.5-0.2,0.9-0.5,0.9
		c-0.4,0-0.6-0.3-0.6-1.1l-0.1-0.6c-0.1-1.4-1.6-3-6.5-3.1l-6.9-0.2v22.4c0,5,0,9.3,0.3,11.7c0.2,1.5,0.5,2.7,2.1,3
		c0.8,0.1,2,0.2,2.8,0.2c0.6,0,0.9,0.2,0.9,0.4c0,0.4-0.4,0.5-1,0.5c-3.6,0-7.1-0.2-8.6-0.2c-1.3,0-4.7,0.2-6.9,0.2
		c-0.7,0-1.1-0.2-1.1-0.5c0-0.3,0.2-0.4,0.9-0.4c0.8,0,1.5-0.1,2-0.2c1.1-0.2,1.4-1.4,1.6-3c0.3-2.3,0.3-6.6,0.3-11.6V218.7z"/>
	<path class="st4" d="M211.8,316c0-1.9,0-2.3,0-2.7c0-0.4-0.1-0.6-0.5-0.7c-0.1,0-0.3,0-0.5,0c-0.1,0-0.2,0-0.2-0.1
		c0-0.1,0.1-0.1,0.3-0.1c0.7,0,1.5,0,1.7,0c0.6,0,1.1,0,1.6,0c2.3,0,2.7,1.2,2.7,1.9c0,1-0.6,1.7-1.3,2.2c1,0.4,2.3,1.2,2.3,2.7
		c0,1.4-1.1,2.8-3.4,2.8c-0.2,0-0.5,0-0.9,0c-0.4,0-0.8,0-1,0c-0.1,0-0.4,0-0.7,0c-0.3,0-0.6,0-0.9,0c-0.2,0-0.3,0-0.3-0.1
		c0-0.1,0.1-0.1,0.2-0.1c0.2,0,0.3,0,0.5-0.1c0.3,0,0.3-0.3,0.4-0.7c0.1-0.5,0.1-1.5,0.1-2.7V316z M213.4,316.3c0,0.1,0,0.1,0.1,0.1
		c0.1,0,0.3,0,0.6,0c0.4,0,0.7-0.1,0.9-0.2c0.3-0.3,0.5-0.7,0.5-1.3c0-0.8-0.5-2-1.6-2c-0.2,0-0.3,0-0.4,0c-0.1,0-0.1,0.1-0.1,0.2
		V316.3z M215,317.3c-0.3-0.2-0.6-0.3-1.1-0.3c-0.2,0-0.4,0-0.5,0c-0.1,0-0.1,0-0.1,0.1v3c0,0.8,0,1,0.4,1.2
		c0.3,0.1,0.6,0.2,0.9,0.2c0.6,0,1.5-0.3,1.5-1.6C216.3,319,216,317.9,215,317.3"/>
	<path class="st4" d="M221.2,316c0-1.9,0-2.3,0-2.7c0-0.4-0.1-0.6-0.5-0.7c-0.1,0-0.3,0-0.5,0c-0.1,0-0.2,0-0.2-0.1
		c0-0.1,0.1-0.1,0.3-0.1c0.7,0,1.5,0,1.7,0c0.4,0,1.4,0,1.8,0c0.8,0,1.7,0.1,2.3,0.5c0.4,0.2,0.9,0.9,0.9,1.7c0,0.9-0.4,1.8-1.7,2.8
		c1.1,1.4,2,2.5,2.8,3.3c0.7,0.7,1.2,0.8,1.4,0.9c0.1,0,0.3,0,0.4,0c0.1,0,0.2,0,0.2,0.1c0,0.1-0.1,0.1-0.2,0.1h-1.2
		c-0.7,0-1-0.1-1.4-0.2c-0.5-0.3-1-0.9-1.7-1.9c-0.5-0.7-1.1-1.6-1.3-1.7c-0.1-0.1-0.1-0.1-0.2-0.1l-1.1,0c-0.1,0-0.1,0-0.1,0.1v0.2
		c0,1.2,0,2.2,0.1,2.7c0,0.4,0.1,0.6,0.5,0.7c0.2,0,0.5,0.1,0.6,0.1c0.1,0,0.2,0,0.2,0.1c0,0.1-0.1,0.1-0.3,0.1c-0.7,0-1.7,0-1.9,0
		c-0.2,0-1,0-1.6,0c-0.2,0-0.3,0-0.3-0.1c0-0.1,0.1-0.1,0.2-0.1c0.2,0,0.3,0,0.5-0.1c0.3,0,0.3-0.3,0.4-0.7c0.1-0.5,0.1-1.5,0.1-2.7
		V316z M222.7,317c0,0.1,0,0.2,0.1,0.2c0.3,0.1,0.6,0.1,1,0.1c0.5,0,0.7-0.1,0.9-0.2c0.4-0.3,0.8-0.9,0.8-1.9c0-1.8-1.2-2.3-1.9-2.3
		c-0.3,0-0.5,0-0.7,0c-0.1,0-0.1,0.1-0.1,0.2V317z"/>
	<path class="st4" d="M230.8,316c0-1.9,0-2.3,0-2.7c0-0.4-0.1-0.6-0.5-0.7c-0.1,0-0.3,0-0.5,0c-0.1,0-0.2,0-0.2-0.1
		c0-0.1,0.1-0.1,0.3-0.1c0.7,0,1.5,0,1.9,0c0.3,0,1.1,0,1.6,0c0.2,0,0.3,0,0.3,0.1c0,0.1-0.1,0.1-0.2,0.1c-0.1,0-0.2,0-0.4,0
		c-0.3,0.1-0.4,0.3-0.5,0.7c0,0.4,0,0.8,0,2.7v1.8c0,1.8,0.4,2.6,1,3.1c0.6,0.5,1.2,0.5,1.6,0.5c0.6,0,1.2-0.2,1.8-0.7
		c0.7-0.7,0.7-1.8,0.7-3.1V316c0-1.9,0-2.3,0-2.7c0-0.4-0.1-0.6-0.5-0.7c-0.1,0-0.3,0-0.5,0c-0.1,0-0.2,0-0.2-0.1
		c0-0.1,0.1-0.1,0.3-0.1c0.7,0,1.4,0,1.5,0c0.2,0,1,0,1.4,0c0.2,0,0.3,0,0.3,0.1c0,0.1-0.1,0.1-0.2,0.1c-0.1,0-0.2,0-0.4,0
		c-0.3,0.1-0.4,0.3-0.5,0.7c0,0.4,0,0.8,0,2.7v1.4c0,1.4-0.1,2.9-1.2,3.8c-0.9,0.8-1.8,0.9-2.6,0.9c-0.7,0-1.9,0-2.8-0.9
		c-0.6-0.6-1.1-1.5-1.1-3.3V316z"/>
	<path class="st4" d="M244.6,313.1l-1.9,0.1c-0.7,0-1,0.1-1.2,0.4c-0.1,0.2-0.2,0.3-0.2,0.4c0,0.1-0.1,0.2-0.1,0.2
		c-0.1,0-0.1-0.1-0.1-0.2c0-0.2,0.2-1.4,0.3-1.5c0-0.2,0.1-0.2,0.2-0.2c0.1,0,0.2,0.1,0.5,0.2c0.4,0,0.9,0.1,1.3,0.1h5
		c0.4,0,0.7,0,0.9-0.1c0.2,0,0.3-0.1,0.3-0.1c0.1,0,0.1,0.1,0.1,0.3c0,0.3,0,1.1,0,1.5c0,0.1,0,0.2-0.1,0.2c-0.1,0-0.1-0.1-0.1-0.3
		l0-0.1c0-0.3-0.4-0.7-1.5-0.7l-1.6,0v5.2c0,1.2,0,2.2,0.1,2.7c0,0.4,0.1,0.6,0.5,0.7c0.2,0,0.5,0.1,0.7,0.1c0.1,0,0.2,0,0.2,0.1
		c0,0.1-0.1,0.1-0.2,0.1c-0.8,0-1.6,0-2,0c-0.3,0-1.1,0-1.6,0c-0.2,0-0.3,0-0.3-0.1c0-0.1,0.1-0.1,0.2-0.1c0.2,0,0.3,0,0.5-0.1
		c0.3,0,0.3-0.3,0.4-0.7c0.1-0.5,0.1-1.5,0.1-2.7V313.1z"/>
	<path class="st1" d="M230.1,123.4c-19.4,0-37.8,4-54.6,11.1c17.8-2.7,36-5.7,54.6-5.7s36.8,3,54.6,5.7
		C268,127.4,249.5,123.4,230.1,123.4"/>
	<path class="st1" d="M235.9,86.6l-5-0.7l-0.7-5c0,0,0-0.1-0.1-0.1c0,0-0.1,0-0.1,0.1l-0.8,5l-5,0.7c0,0-0.1,0-0.1,0.1
		c0,0,0,0.1,0.1,0.1l5,0.7l0.8,5c0,0,0,0.1,0.1,0.1c0,0,0.1,0,0.1-0.1l0.7-5l5-0.7C236,86.8,236,86.8,235.9,86.6
		C236,86.7,236,86.6,235.9,86.6"/>
	<path class="st1" d="M216.7,91.7l-5.3-0.7l-2.3-5c0,0-0.1-0.1-0.1-0.1c0,0-0.1,0.1-0.1,0.1l0.8,4.9l-4.8,0.7c0,0-0.1,0-0.1,0.1
		c0,0,0,0.1,0.1,0.1l5.3,0.7l2.3,5c0,0,0.1,0.1,0.1,0.1h0c0,0,0.1,0,0.1-0.1c0,0,0,0,0,0l-0.8-4.9l4.8-0.7
		C216.7,91.9,216.7,91.9,216.7,91.7C216.7,91.8,216.7,91.7,216.7,91.7"/>
	<path class="st1" d="M255.2,91.7l-4.8-0.7l0.8-4.9c0,0,0-0.1-0.1-0.1c0,0-0.1,0-0.1,0.1l-2.3,5l-5.3,0.7c0,0-0.1,0-0.1,0.1
		c0,0,0,0.1,0.1,0.1l4.8,0.7l-0.8,4.9c0,0,0,0.1,0.1,0.1c0,0,0,0,0,0c0,0,0.1,0,0.1-0.1l2.3-5l5.3-0.7
		C255.2,91.9,255.3,91.9,255.2,91.7C255.3,91.8,255.2,91.7,255.2,91.7"/>
	<path class="st1" d="M246.2,98.4c0,0-1.4,1-5.1,1c-3.7,0-7.6-1.3-9.5-3.7c-1-1.3-1.4-2.8-1.4-2.8H230c0,0-0.4,1.5-1.5,2.8
		c-1.9,2.4-5.8,3.7-9.5,3.7c-3.7,0-5.1-1-5.1-1l-1.2-0.4c0,0,0.2,0.4,0.6,0.7c0.4,0.3,3.3,2.1,10.2,0.2c4.1-1.1,5.8-3,6.5-4.4
		c0.7,1.4,2.4,3.3,6.5,4.4c6.9,1.8,9.8,0,10.2-0.2c0.4-0.3,0.6-0.7,0.6-0.7L246.2,98.4z"/>
	<path class="st1" d="M230.1,103.9c-0.6,1.2-1.5,2.1-2.7,2.7c1.2,0.6,2.1,1.5,2.7,2.7c0.6-1.2,1.5-2.1,2.7-2.7l0,0
		C231.6,106,230.6,105.1,230.1,103.9"/>
	<path class="st1" d="M247,103.9C247,103.9,246.9,103.8,247,103.9l-13.4,0.2c0,0-0.1,0-0.1,0l-1,1.8c0,0,0,0.1,0,0.1c0,0,0,0,0.1,0
		h7.3c0.8,0,6.4-0.8,6.7-0.9c0,0,0,0,0.1,0L247,103.9C247,103.9,247,103.9,247,103.9"/>
	<path class="st1" d="M246.1,106.3C246.1,106.3,246.1,106.3,246.1,106.3l-13.4,0.2c0,0,0,0-0.1,0l-1,1.8c0,0,0,0,0,0.1
		c0,0,0,0,0.1,0h7.3c0.8,0,6.4-0.8,6.7-0.9c0,0,0.1,0,0.1,0L246.1,106.3C246.1,106.4,246.1,106.4,246.1,106.3"/>
	<path class="st1" d="M245.1,108.8C245,108.8,245,108.8,245.1,108.8l-13.4,0.2c0,0-0.1,0-0.1,0l-1,1.8c0,0,0,0.1,0,0.1
		c0,0,0,0,0.1,0h7.3c0.8,0,6.4-0.8,6.7-0.9c0,0,0,0,0.1,0L245.1,108.8C245.1,108.8,245.1,108.8,245.1,108.8"/>
	<path class="st1" d="M213.2,103.9C213.2,103.9,213.2,103.8,213.2,103.9l13.4,0.2c0,0,0,0,0.1,0l1,1.8c0,0,0,0.1,0,0.1
		c0,0,0,0-0.1,0h-7.3c-0.8,0-6.4-0.8-6.7-0.9c0,0,0,0-0.1,0L213.2,103.9C213.2,103.9,213.2,103.9,213.2,103.9"/>
	<path class="st1" d="M214,106.3C214,106.3,214.1,106.3,214,106.3l13.4,0.2c0,0,0,0,0.1,0l1,1.8c0,0,0,0,0,0.1c0,0,0,0-0.1,0h-7.3
		c-0.8,0-6.4-0.8-6.7-0.9c0,0,0,0-0.1,0L214,106.3C214,106.4,214,106.4,214,106.3"/>
	<path class="st1" d="M215.1,108.8C215.1,108.8,215.1,108.8,215.1,108.8l13.4,0.2c0,0,0.1,0,0.1,0l1,1.8c0,0,0,0.1,0,0.1
		c0,0,0,0-0.1,0h-7.3c-0.8,0-6.4-0.8-6.7-0.9c0,0-0.1,0-0.1,0L215.1,108.8C215.1,108.8,215.1,108.8,215.1,108.8"/>
</g>
<g>
	<path class="st6" d="M198.9,245.1c-1.9,0-5,1.5-9.3,4.4c-4.3,2.9-8.5,6.4-12.6,10.5l-3.7,0l-0.4,0.4h3.6l-7.4,7.8
		c-6.3,6.6-10.2,10.7-11.8,12.1c-2,1.9-4.1,3.5-6.4,4.8c-3.7,2.2-7.1,3.4-10.1,3.4c-0.7,0-1.5-0.1-2.2-0.3c-0.1,0-0.2-0.1-0.4-0.1
		c-0.2,0-0.4,0.1-0.5,0.3c-0.1,0.4,0.7,0.6,2.3,0.6c3.7,0,8.2-1.5,13.4-4.5c3.8-2.2,6.7-4.7,9.9-7.5c3.2-2.8,6.9-6.8,11.9-12.3
		l4-4.4l6.8,0l0.4-0.4l-5.8,0c0,0,0,0,0,0h-0.5c-0.2,0-0.3-0.2-0.2-0.3c0,0-0.1,0-0.1,0c0,0,0.1-0.1,0.1-0.1c0,0,0,0,0,0
		c4.2-4.4,8.2-7.8,10.1-9.4c3.9-3.2,6.9-4.7,8.6-4.7c0.7,0,1,0.3,0.8,0.9c-0.1,0.2-0.2,0.4-0.3,0.7c0.2-0.1,0.3-0.1,0.5-0.2
		c0,0,0,0,0.1,0c0.1-0.2,0.1-0.3,0.2-0.5C200.3,245.5,199.9,245.1,198.9,245.1z"/>
	<path class="st6" d="M233.9,268.8c-0.1,0-0.2,0.1-0.4,0.2c-5.7,5-9.5,7.5-11.3,7.5c-0.8,0-1.1-0.4-0.9-1.1c0.2-0.7,0.8-2.4,3.5-5.1
		c2.7-2.6,9.1-8.7,19.2-18.1c-0.2,0-0.4,0-0.5,0c0,0-0.1,0-0.1,0c0,0-0.1,0-0.1,0c0,0,0,0-0.1,0c0,0,0,0-0.1,0c0,0,0,0-0.1,0
		c-0.6,0-1.2-0.1-1.8-0.2l-14.6,14.2c0.5-0.6,0.8-1.1,0.9-1.5c0.3-0.9-0.2-1.4-1.4-1.4c-1.8,0-4.6,0.8-8.2,2.5
		c-4.6,2.1-7.3,4.5-8.1,7.1c-0.3,1.1-0.2,2,0.2,2.7c0.5,0.7,1.2,1.1,2.3,1.1c1.7,0,4.8-2,9.3-5.9c-1,1.1-1.7,2.1-1.9,3
		c-0.3,0.9-0.2,1.6,0.2,2.1c0.4,0.5,1.1,0.8,2,0.8c1.8,0,5.1-2.1,10-6.2l1.7-1.4c0.2-0.2,0.4-0.3,0.4-0.4
		C234,268.8,234,268.8,233.9,268.8z M212.6,276.5c-1.1,0-2.4-0.9-2.1-1.9c0.5-1.7,2.6-4,6.4-6.9c3.7-2.8,7.4-3.9,9.2-3.9
		c1,0,1.3,0.4,1.1,1.3c-0.3,0.9-1.8,2.5-4.5,4.9C217.5,274.3,214.1,276.5,212.6,276.5z"/>
	<path class="st6" d="M248.8,268.9c0,0-0.3,0.3-0.7,0.6l-1.6,1.3c-5.2,4-9.3,6.1-12.2,6.1c-1.4,0-2.4-0.4-3.1-1.2
		c-0.7-0.8-0.9-1.8-0.5-3c0.8-2.8,4-5.4,9.6-7.5c2.9-1.1,5.2-1.7,6.8-1.7c0.9,0,1.5,0.3,1.9,0.8c0.1,0.2,0.2,0.5,0.2,0.7
		c-0.2,1.2-1.5,2.3-3.7,3.1c-2.1,0.8-6.1,1.6-10.6,2.3c-1.8,1.6-2.3,2.9-2.6,4c-0.4,1.4,0.5,2.1,2.3,2.1c3.1,0,7.6-2.4,13.5-7.3
		c0.3-0.3,0.5-0.4,0.7-0.4C248.8,268.8,248.8,268.8,248.8,268.9z M247.6,264.5c0.1-0.5-0.1-0.8-0.8-0.8c-1,0-3.3,0.5-5.3,1.7
		c-2,1.2-4.1,2.7-6.3,4.5c3-0.6,6.3-1.3,8.6-2.4C246.1,266.5,247.4,265.5,247.6,264.5z M260.7,256.3c-2.2,1.2-5,2.3-8.2,3.3
		c-2.5,0.8-3.9,1.2-4.2,1.2c-0.1,0-0.1,0-0.2,0c0,0,0.2-0.1,0.4-0.2c5.1-1.8,8.9-3.7,11.4-5.7L260.7,256.3z"/>
	<path class="st6" d="M213.5,268.9c0,0-0.3,0.3-0.7,0.6l-1.6,1.3c-5.2,4-9.3,6.1-12.2,6.1c-1.4,0-2.4-0.4-3.1-1.2
		c-0.7-0.8-0.9-1.8-0.5-3c0.8-2.8,4-5.4,9.6-7.5c2.9-1.1,5.2-1.7,6.8-1.7c0.9,0,1.5,0.3,1.9,0.8c0.1,0.2,0.2,0.5,0.2,0.7
		c-0.2,1.2-1.5,2.3-3.7,3.1c-2.1,0.8-6.1,1.6-10.6,2.3c-1.8,1.6-2.3,2.9-2.6,4c-0.4,1.4,0.5,2.1,2.3,2.1c3.1,0,7.6-2.4,13.5-7.3
		c0.3-0.3,0.5-0.4,0.7-0.4C213.5,268.8,213.5,268.8,213.5,268.9z M212.3,264.5c0.1-0.5-0.1-0.8-0.8-0.8c-1,0-3.2,0.5-5.3,1.7
		c-2,1.2-4.1,2.7-6.3,4.5c3-0.6,6.3-1.3,8.6-2.4C210.8,266.5,212,265.5,212.3,264.5z M225.4,256.3c-2.2,1.2-5,2.3-8.2,3.3
		c-2.5,0.8-3.9,1.2-4.2,1.2c-0.1,0-0.1,0-0.2,0c0,0,0.2-0.1,0.4-0.2c5.1-1.8,8.9-3.7,11.5-5.7L225.4,256.3z"/>
	<path class="st6" d="M265.5,268.9c0,0.1-0.8,0.7-2.3,1.7c-1.9,1.3-3.5,2-4.8,2c-1.5,0-2-0.7-1.6-2.1c0.1-0.4,0.4-1,0.9-1.7
		c-1.5,0.9-3.5,1.6-4.5,2.5c-1,0.9-2.9,2.6-5.5,5.2c-1-0.1-0.8,0-1,0c-0.1,0-0.7,0-1.8,0.1l6.7-6.3c3.3-3.2,5.1-5.1,5.3-5.9
		c0.1-0.4,0-0.7-0.5-0.7c-1.1,0-3.6,1.7-7.5,5.1c-0.2,0.2-0.4,0.3-0.6,0.3c-0.1,0-0.1-0.1-0.1-0.1c0-0.1,0.1-0.1,0.2-0.2l0.7-0.6
		c4-3.2,6.5-4.9,7.6-4.9c1.6,0,2.6,0.9,1.6,2.4c-0.9,1.4-2.4,2.7-4.6,4.7c1.3-0.9,3.2-1.6,4.3-2.2c1.2-1.4,2.4-2.6,3.8-3.5
		c1.4-0.9,2.5-1.4,3.4-1.4c0.6,0,0.8,0.2,0.7,0.6c-0.2,0.8-1.9,1.8-5,3.3c-0.5,0.2-1.2,0.5-2.2,1l-0.4,0.2c-0.5,0.7-0.8,1.3-1,1.8
		c-0.4,1.3,0,2,1.3,2c1.5,0,3.5-1,5.9-3.1c0.5-0.3,0.8-0.5,0.9-0.5C265.4,268.7,265.5,268.8,265.5,268.9z"/>
	<path class="st6" d="M197.2,268.9c0,0.1-0.8,0.7-2.3,1.7c-1.9,1.3-3.5,2-4.8,2c-1.5,0-2-0.7-1.6-2.1c0.1-0.4,0.4-1,0.9-1.7
		c-1.5,0.9-3.5,1.6-4.5,2.5c-1,0.9-2.9,2.6-5.5,5.2c-1-0.1-0.8,0-1,0c-0.1,0-0.7,0-1.8,0.1l6.7-6.3c3.3-3.2,5.1-5.1,5.3-5.9
		c0.1-0.4,0-0.7-0.5-0.7c-1.1,0-3.6,1.7-7.5,5.1c-0.2,0.2-0.4,0.3-0.6,0.3c-0.1,0-0.1-0.1-0.1-0.1c0-0.1,0.1-0.1,0.2-0.2l0.7-0.6
		c4-3.2,6.5-4.9,7.6-4.9c1.6,0,2.6,0.9,1.6,2.4c-0.9,1.4-2.4,2.7-4.6,4.7c1.3-0.9,3.3-1.6,4.3-2.2c1.2-1.4,2.4-2.6,3.8-3.5
		c1.4-1,2.3-1.4,3.2-1.4c0.6,0,0.8,0.2,0.7,0.6c-0.2,0.8-1.7,1.7-4.9,3.1c-0.5,0.2-1.2,0.7-2.2,1.1l-0.4,0.2
		c-0.5,0.7-0.8,1.3-0.9,1.8c-0.4,1.3,0,2,1.3,2c1.5,0,3.5-1,5.9-3.1c0.5-0.3,0.8-0.5,0.9-0.5C197.2,268.8,197.2,268.8,197.2,268.9z"
		/>
	<path class="st6" d="M275.4,268.9c0,0-0.2,0.2-0.4,0.4l-1.7,1.4c-4.9,4.1-8.3,6.2-10.2,6.2c-0.9,0-1.6-0.3-2.1-0.8
		c-0.5-0.5-0.6-1.2-0.3-2c0.3-0.9,1.4-2.3,3.3-4.2l6.4-6.3c0.6,0.1,1,0.2,1.4,0.2c0.5,0,0.1,0,1.1-0.1l-9,8.7
		c-1.3,1.3-1.7,2.2-1.9,2.9c-0.2,0.7,0.7,1.2,1.6,1.2c1.7,0,5.5-2.5,11.4-7.5c0.1-0.2,0.3-0.2,0.4-0.2
		C275.4,268.7,275.5,268.8,275.4,268.9z M277.9,259.1c-0.2,0.6-0.6,1.1-1.3,1.6c-0.7,0.5-1.4,0.7-2.1,0.7c-0.9,0-1.2-0.4-1-1.1
		c0.2-0.5,0.6-1,1.4-1.5c0.7-0.5,1.5-0.7,2.1-0.7C277.8,258,278.1,258.4,277.9,259.1z"/>
	<path class="st6" d="M290,268.9c-0.1,0.2-1.8,1.5-5.3,4c-3.8,2.7-6.7,4-8.8,4c-1.4,0-2.4-0.4-3.1-1.3c-0.7-0.8-0.9-1.9-0.6-3
		c0.4-1.3,1.5-2.7,3.2-4.1c1.8-1.4,3.9-2.6,6.4-3.7c2.2-0.9,4-1.4,5.2-1.3c1,0,1.7,0.9,1.5,1.8c-0.3,1.2-1.1,2.4-2.4,3.5
		c-1.2,1.1-2.3,1.6-3.2,1.6c-0.9,0-1.2-0.4-1-1.1c0.2-0.8,1.4-1.6,3.4-2.3c1.5-0.6,2.5-1.3,2.7-2.2c0.2-0.7-0.2-1.1-1.1-1.1
		c-1.6,0-4.9,1-8.1,3.6c-3.1,2.6-5,4.8-5.5,6.6c-0.4,1.5,1.1,2.5,2.9,2.5c2.7,0,7.1-2.5,13.1-7.4c0.3-0.3,0.6-0.4,0.7-0.4
		C290,268.7,290,268.8,290,268.9z"/>
	<path class="st6" d="M309.4,252.1c-0.2,0.2-0.6,0.5-1,1c-0.7,0.7-1.8,1.7-3.2,3c-0.7,0.7-1.7,1.7-3.2,3.1l-7,6.6
		c-2.3,2.2-4.3,4.2-6,6c-1.9,2-3.4,3.5-4.5,4.6l-0.5,0.5c-0.5-0.1-0.6-0.1-1.1-0.1c-0.4,0-0.4,0-1.3,0.1c0.6-0.6,1.3-1.3,2.1-2.1
		l4.8-4.8c0.7-0.7,1.8-1.8,3.2-3.2l15.1-14.6c0.8,0.1,0.7,0.2,1.1,0.2C308.3,252.2,308.5,252.2,309.4,252.1z M308,268.9
		c0,0-0.2,0.2-0.4,0.4l-1.7,1.4c-4.9,4.1-8.3,6.2-10.2,6.2c-0.8,0-1.5-0.2-2-0.7c-0.5-0.5-0.7-1-0.5-1.6c0.2-0.5,1-1.6,2.6-3.4
		l0.1-0.1c0.5-0.6,0.9-1,0.9-1.3c0.1-0.3-0.1-0.7-0.7-1c-0.8,0.3-1.5,0.4-2,0.4c-0.7,0-1-0.2-0.9-0.5c0.1-0.3,0.4-0.4,1.1-0.4
		c0.6,0,1.2,0.1,1.6,0.2c1.1-0.4,3-1.5,5.7-3.5c1.5-1.1,2.8-1.6,4-1.6c1.5,0,1.9,0.6,1.5,1.7c-0.2,0.8-0.8,1.5-1.8,2.2
		c-1,0.8-1.7,1.1-2.5,1.1c-0.8,0-1.1-0.3-0.9-0.9c0.2-0.6,1-1.2,2.4-1.8c0.6-0.3,1-0.6,1.1-1.1c0.1-0.4-0.1-0.6-0.7-0.6
		c-0.8,0-2.1,0.6-3.7,1.8c-2.1,1.5-3.7,2.4-4.8,2.8c1.8,0.8,1.8,1.6,1.5,2.6c-0.2,0.6-1,1.6-2.4,3.2c-0.6,0.7-0.9,1.1-1,1.4
		c-0.1,0.4,0.9,0.6,1.6,0.6c1.8,0,5.6-2.5,11.2-7.5c0.2-0.2,0.3-0.2,0.4-0.2C308,268.7,308,268.8,308,268.9z"/>
</g>
</svg>
